<?xml version="1.0" standalone="no"?><!DOCTYPE svg PUBLIC "-//W3C//DTD SVG 1.1//EN" "http://www.w3.org/Graphics/SVG/1.1/DTD/svg11.dtd"><svg t="1735711384981" class="icon" viewBox="0 0 1124 1024" version="1.1" xmlns="http://www.w3.org/2000/svg" p-id="5087" id="mx_n_1735711384982" xmlns:xlink="http://www.w3.org/1999/xlink" width="219.53125" height="200"><path d="M0 512a562.294082 512 0 1 0 1124.588164 0 562.294082 512 0 1 0-1124.588164 0Z" p-id="5088"></path><path d="M38.423429 512a523.870653 477.012813 0 1 0 1047.741306 0 523.870653 477.012813 0 1 0-1047.741306 0Z" fill="#FFD918" p-id="5089"></path><path d="M562.294082 989.012813a572.290421 572.290421 0 0 0 134.013423-15.931666C262.71629 911.228798 178.059793 584.161074 218.669921 322.38194a851.563148 851.563148 0 0 1 54.66748-208.361196 468.578401 468.578401 0 0 0-234.913972 397.979256c0 263.341062 234.601586 477.012813 523.870653 477.012813z" fill="#FFB316" p-id="5090"></path><path d="M905.918243 512a21.866992 21.866992 0 0 1-15.306895-6.247712l-152.444173-144.322148a22.491763 22.491763 0 0 1-6.560098-19.992678 20.929835 20.929835 0 0 1 12.495425-16.244051l152.756558-69.037218a22.179378 22.179378 0 0 1 18.430751 40.610128l-122.455156 54.979866 128.390482 121.830384a21.866992 21.866992 0 0 1 0 31.23856 22.179378 22.179378 0 0 1-15.306894 7.184869zM403.914582 512a22.179378 22.179378 0 0 1-15.61928-37.798658l122.767541-122.767541-124.95424-54.66748A22.179378 22.179378 0 1 1 406.101281 256.156193l153.693716 67.787675a22.804149 22.804149 0 0 1 12.80781 16.244051 22.491763 22.491763 0 0 1-6.247712 19.680293l-145.57169 145.57169a21.866992 21.866992 0 0 1-16.868823 6.560098zM516.373398 749.725442a22.179378 22.179378 0 0 1-19.680292-11.870652 23.42892 23.42892 0 0 1 8.746796-31.238561 22.491763 22.491763 0 0 1 18.430751-1.561928l281.147041-4.373398a22.179378 22.179378 0 0 1 0 44.358755l-288.33191 4.685784z" fill="#050404" p-id="5091"></path></svg>